<svg width="64" height="64" viewBox="0 0 64 64" fill="none" xmlns="http://www.w3.org/2000/svg">
    <rect width="64" height="64" rx="32" fill="#FF482B"/>
    <path d="M42.0607 21.9393C42.6464 22.5251 42.6464 23.4749 42.0607 24.0607L34.1213 32L42.0607 39.9393C42.6464 40.5251 42.6464 41.4749 42.0607 42.0607C41.4749 42.6464 40.5251 42.6464 39.9393 42.0607L32 34.1213L24.0607 42.0607C23.4749 42.6464 22.5251 42.6464 21.9393 42.0607C21.3536 41.4749 21.3536 40.5251 21.9393 39.9393L29.8787 32L21.9394 24.0607C21.3536 23.4749 21.3536 22.5251 21.9394 21.9394C22.5251 21.3536 23.4749 21.3536 24.0607 21.9394L32 29.8787L39.9393 21.9393C40.5251 21.3536 41.4749 21.3536 42.0607 21.9393Z" fill="white"/>
</svg>
