<svg width="42" height="42" viewBox="0 0 42 42" fill="none" xmlns="http://www.w3.org/2000/svg">
    <rect width="42" height="42" rx="12" fill="#FF5A43"/>
    <path d="M21 31C26.4706 31 31 26.4706 31 21C31 15.5392 26.4608 11 20.9902 11C15.5294 11 11 15.5392 11 21C11 26.4706 15.5392 31 21 31ZM17.4804 25.3529C17.0294 25.3529 16.6569 24.9804 16.6569 24.5196C16.6569 24.2941 16.7451 24.098 16.902 23.951L19.8333 21.0098L16.902 18.0686C16.7451 17.9314 16.6569 17.7255 16.6569 17.5C16.6569 17.049 17.0294 16.6863 17.4804 16.6863C17.7157 16.6863 17.902 16.7745 18.049 16.9314L20.9902 19.8627L23.951 16.9216C24.1176 16.7451 24.3039 16.6667 24.5196 16.6667C24.9804 16.6667 25.3431 17.0392 25.3431 17.4902C25.3431 17.7157 25.2745 17.902 25.098 18.0588L22.1569 21.0098L25.0882 23.9314C25.2451 24.0882 25.3333 24.2843 25.3333 24.5196C25.3333 24.9804 24.9706 25.3529 24.5098 25.3529C24.2745 25.3529 24.0686 25.2549 23.9216 25.1078L20.9902 22.1667L18.0686 25.1078C17.9216 25.2647 17.7157 25.3529 17.4804 25.3529Z" fill="white"/>
</svg>
