<svg width="344" height="185" viewBox="0 0 344 185" fill="none" xmlns="http://www.w3.org/2000/svg">
    <path opacity="0.65" fill-rule="evenodd" clip-rule="evenodd" d="M175.034 32.4088C193.915 34.2867 207.513 48.6726 221.29 61.7248C235.664 75.3432 252.422 88.3402 254.822 108C257.454 129.553 249.82 152.115 234.164 167.154C218.752 181.959 196.399 184.963 175.034 184.645C154.062 184.333 131.245 181.388 117.638 165.42C104.613 150.135 109.558 128.085 109.722 108C109.883 88.1859 105.614 66.4981 118.566 51.5077C132.074 35.8744 154.48 30.3644 175.034 32.4088Z" fill="#F1F1F4"/>
    <g clip-path="url(#clip0_406_6448)">
        <path d="M97.8965 116.644V123.686M99.1778 122.405L98.7507 123.686" stroke="#403965" stroke-width="0.666667"/>
        <path d="M247.556 66.2172L243.643 74.8547L242.977 73.8122L242.825 73.5747L242.565 73.6848L240.311 74.6416L239.256 72.4482L239.117 72.1592L238.822 72.2872L234.784 74.0438L232.926 68.2491L232.825 67.9315L232.507 68.0336L228.742 69.2441L227.894 67.2281L227.777 66.9514L227.49 67.0385L222.711 68.4864L222.117 65.6817L227.971 52.759C228.352 51.9179 229.345 51.5466 230.184 51.931L244.478 58.4766L247.556 66.2172Z" stroke="#403965" stroke-width="0.666667"/>
        <path d="M244.763 58.4299L247.934 66.1536L243.595 64.1914C242.922 63.8869 242.625 63.0928 242.933 62.4211L244.763 58.4299Z" fill="#403965"/>
        <path d="M215.862 79.4346L220.785 68.5181L221.26 70.7968L221.335 71.1546L221.684 71.0473L226.513 69.5649L227.356 71.5931L227.474 71.8774L227.766 71.7822L231.496 70.5696L233.346 76.4245L233.458 76.7787L233.798 76.6291L237.872 74.8373L238.918 77.0339L239.055 77.3231L239.35 77.197L241.633 76.2194L242.375 77.3926L237.07 89.1625C236.689 90.0065 235.694 90.379 234.853 89.9921L216.685 81.6333C215.853 81.2507 215.486 80.2691 215.862 79.4346Z" stroke="#403965" stroke-width="0.666667"/>
        <path d="M197.216 51.4976L199.342 85.8339L166.477 87.866L163.978 47.5213C163.91 46.4188 164.749 45.4698 165.851 45.4015L188.288 44.0124L197.216 51.4976Z" stroke="#403965" stroke-width="0.666667"/>
        <path d="M188.4 43.6715L197.54 51.3341L190.902 51.7452C189.8 51.8135 188.851 50.9748 188.783 49.8721L188.4 43.6715Z" fill="#403965"/>
        <path d="M179.603 69.8613L179.508 69.1634C179.265 67.7182 179.661 66.1012 180.92 64.4112C182.056 62.9081 182.672 61.8344 182.603 60.6147C182.526 59.2404 181.611 58.3729 179.908 58.4416C178.935 58.492 178.001 58.8365 177.228 59.4294L176.486 57.7694C177.347 57.0716 178.854 56.5562 180.285 56.481C183.391 56.3092 184.902 58.1431 185.02 60.1895C185.124 62.0212 184.172 63.3977 182.963 65.0061C181.852 66.4727 181.488 67.6817 181.645 69.0496L181.712 69.7496L179.603 69.8613ZM179.219 73.6642C179.163 72.6679 179.798 71.9292 180.743 71.8776C181.688 71.8261 182.377 72.4875 182.433 73.486C182.485 74.4287 181.906 75.1889 180.907 75.2447C179.953 75.2984 179.265 74.6069 179.211 73.6642H179.219Z" fill="#403965"/>
        <path d="M109.03 68.491C109.39 67.6986 109.039 66.7645 108.246 66.4057L106.432 65.5845C105.64 65.2261 104.708 65.5762 104.348 66.3671C104.251 66.5716 104.101 66.7461 103.913 66.8718C103.725 66.9975 103.507 67.0697 103.281 67.0806C103.023 67.089 102.767 67.1139 102.513 67.1552C102.29 67.1883 102.062 67.1603 101.853 67.0741C101.645 66.9879 101.464 66.8467 101.329 66.6658C100.823 65.9579 99.8382 65.795 99.1306 66.302L97.5129 67.4609C96.8051 67.968 96.6422 68.9527 97.1489 69.6607C97.2765 69.8457 97.3516 70.0618 97.3663 70.286C97.3809 70.5103 97.3345 70.7342 97.232 70.9342C97.1136 71.1624 97.0069 71.3963 96.9123 71.6353C96.8301 71.846 96.6919 72.0303 96.5127 72.1684C96.3335 72.3065 96.12 72.3933 95.8952 72.4193C95.0308 72.504 94.3989 73.2735 94.4838 74.1378L94.6778 76.1137C94.7632 76.9824 95.5373 77.6168 96.4058 77.5298C96.6315 77.5118 96.8578 77.5556 97.0604 77.6564C97.263 77.7573 97.4343 77.9114 97.5558 78.1023C97.6222 78.2101 97.6928 78.3138 97.7675 78.4175C97.8422 78.5212 97.917 78.6208 97.9958 78.7203C98.1391 78.8945 98.2312 79.105 98.262 79.3283C98.2928 79.5517 98.261 79.7792 98.1702 79.9855C97.808 80.7826 98.1611 81.7222 98.9585 82.0835L100.762 82.9008C101.557 83.261 102.493 82.9085 102.853 82.1136C102.95 81.9092 103.101 81.7352 103.29 81.6102C103.479 81.4852 103.698 81.414 103.924 81.4042C104.179 81.3937 104.432 81.3688 104.684 81.3295C104.907 81.2964 105.135 81.3245 105.343 81.4107C105.552 81.4969 105.733 81.638 105.867 81.819C106.374 82.527 107.358 82.6901 108.066 82.1834L109.687 81.0233C110.395 80.5166 110.558 79.532 110.052 78.824C109.92 78.6407 109.843 78.4243 109.828 78.1992C109.813 77.9741 109.862 77.7494 109.969 77.5506C110.084 77.3237 110.188 77.0911 110.28 76.8537C110.36 76.6414 110.497 76.4556 110.677 76.3172C110.857 76.1787 111.071 76.093 111.297 76.0697C112.166 75.9826 112.801 75.2078 112.715 74.3384L112.52 72.3705C112.434 71.5013 111.66 70.866 110.791 70.9508C110.566 70.9705 110.341 70.9278 110.14 70.8275C109.938 70.7272 109.768 70.5732 109.649 70.3825C109.578 70.2747 109.508 70.171 109.433 70.0673C109.358 69.9636 109.284 69.8599 109.205 69.7644C109.063 69.5881 108.971 69.3763 108.94 69.1519C108.91 68.9275 108.941 68.699 109.03 68.491ZM107.025 71.7888C107.511 72.4657 107.784 73.2713 107.812 74.1036C107.839 74.936 107.619 75.7577 107.178 76.4649C106.738 77.172 106.098 77.7329 105.339 78.0765C104.58 78.4201 103.735 78.5311 102.913 78.3953C102.091 78.2595 101.327 77.8831 100.719 77.3137C100.111 76.7443 99.6854 76.0075 99.4963 75.1964C99.3072 74.3853 99.3631 73.5364 99.6569 72.7571C99.9507 71.9777 100.469 71.303 101.147 70.8181C102.055 70.1681 103.185 69.9052 104.287 70.0872C105.39 70.2692 106.374 70.8813 107.025 71.7888Z" fill="#403965"/>
        <path d="M247.648 108.045C247.428 107.667 246.944 107.537 246.565 107.756L245.69 108.261C245.31 108.48 245.18 108.965 245.4 109.344C245.459 109.443 245.489 109.556 245.485 109.671C245.481 109.786 245.444 109.898 245.379 109.993C245.31 110.1 245.244 110.211 245.185 110.327C245.135 110.43 245.058 110.517 244.961 110.577C244.864 110.638 244.752 110.669 244.637 110.668C244.202 110.668 243.848 111.021 243.848 111.457V112.468C243.848 112.908 244.204 113.264 244.643 113.264C244.758 113.262 244.87 113.294 244.967 113.354C245.064 113.414 245.141 113.501 245.191 113.604C245.25 113.721 245.316 113.831 245.385 113.939C245.45 114.033 245.487 114.145 245.491 114.26C245.495 114.375 245.465 114.489 245.406 114.587C245.186 114.966 245.316 115.452 245.696 115.671L246.565 116.172C246.947 116.392 247.436 116.262 247.657 115.881C247.715 115.783 247.799 115.703 247.9 115.65C248.001 115.597 248.115 115.574 248.228 115.582H248.611C248.724 115.574 248.838 115.598 248.939 115.651C249.039 115.703 249.124 115.783 249.182 115.881C249.403 116.263 249.893 116.395 250.276 116.173L251.138 115.675C251.519 115.455 251.65 114.968 251.43 114.587C251.374 114.488 251.346 114.375 251.35 114.261C251.354 114.147 251.39 114.036 251.454 113.942C251.523 113.834 251.589 113.721 251.648 113.607C251.698 113.504 251.775 113.417 251.872 113.357C251.969 113.297 252.081 113.265 252.196 113.267C252.635 113.267 252.991 112.911 252.991 112.471V111.472C252.991 111.029 252.632 110.671 252.19 110.671C252.075 110.672 251.963 110.641 251.866 110.58C251.769 110.52 251.692 110.433 251.642 110.33C251.583 110.217 251.517 110.103 251.448 109.996C251.384 109.901 251.348 109.79 251.344 109.676C251.34 109.562 251.368 109.449 251.424 109.35C251.644 108.969 251.513 108.482 251.132 108.262L250.261 107.759C249.882 107.54 249.398 107.668 249.176 108.045C249.118 108.143 249.034 108.222 248.933 108.275C248.832 108.328 248.718 108.352 248.605 108.344H248.414H248.222C248.108 108.351 247.994 108.327 247.893 108.275C247.792 108.222 247.707 108.142 247.648 108.045ZM248.414 109.839C248.414 109.84 248.414 109.84 248.415 109.84C248.836 109.84 249.247 109.964 249.597 110.197C249.948 110.431 250.221 110.763 250.383 111.152C250.544 111.541 250.586 111.969 250.504 112.381C250.422 112.794 250.22 113.174 249.922 113.471C249.624 113.769 249.244 113.971 248.831 114.053C248.418 114.135 247.99 114.093 247.6 113.932C247.211 113.77 246.879 113.497 246.645 113.147C246.412 112.797 246.287 112.385 246.288 111.964C246.287 111.685 246.342 111.409 246.449 111.15C246.555 110.892 246.712 110.658 246.909 110.46C247.107 110.263 247.341 110.106 247.599 109.999C247.857 109.892 248.133 109.837 248.412 109.837C248.413 109.837 248.414 109.838 248.414 109.839Z" fill="#403965"/>
        <path d="M119.862 52.5952C119.469 52.1122 118.763 52.0292 118.269 52.4078L117.166 53.2519C116.685 53.6208 116.591 54.3093 116.956 54.7937C117.055 54.9184 117.115 55.0687 117.131 55.2268C117.146 55.3849 117.116 55.5441 117.043 55.6855C116.964 55.847 116.894 56.0133 116.836 56.1833C116.785 56.3331 116.693 56.4657 116.57 56.5661C116.448 56.6665 116.299 56.7308 116.142 56.7516C115.537 56.8295 115.11 57.3835 115.189 57.9884L115.369 59.3685C115.448 59.9739 116.002 60.4011 116.607 60.3232C116.767 60.301 116.929 60.3242 117.076 60.3903C117.223 60.4563 117.348 60.5625 117.438 60.6965C117.538 60.8408 117.646 60.9793 117.761 61.1113C117.868 61.2289 117.939 61.3746 117.966 61.5312C117.992 61.6879 117.973 61.8488 117.911 61.9949C117.681 62.5598 117.95 63.2042 118.513 63.4384L119.8 63.9736C120.36 64.2067 121.003 63.9385 121.232 63.3762C121.294 63.2299 121.395 63.1037 121.525 63.012C121.655 62.9204 121.808 62.8669 121.967 62.8577L122.233 62.8287L122.494 62.7872C122.648 62.7583 122.806 62.772 122.953 62.8268C123.099 62.8817 123.228 62.9756 123.324 63.0983C123.698 63.5863 124.397 63.679 124.885 63.3053L125.987 62.4612C126.47 62.0913 126.562 61.4 126.193 60.9164C126.097 60.7899 126.037 60.6391 126.022 60.4808C126.006 60.3225 126.036 60.163 126.106 60.0204C126.185 59.86 126.254 59.6952 126.313 59.5267C126.365 59.3769 126.457 59.2444 126.579 59.144C126.702 59.0436 126.85 58.9793 127.007 58.9584C127.612 58.8806 128.039 58.3265 127.96 57.7216L127.78 56.3416C127.702 55.7362 127.147 55.3089 126.542 55.3869C126.383 55.4095 126.22 55.3869 126.074 55.3216C125.927 55.2563 125.801 55.151 125.712 55.0177C125.608 54.8683 125.5 54.7273 125.384 54.6029C125.287 54.4828 125.224 54.339 125.202 54.1864C125.18 54.0339 125.2 53.8783 125.259 53.7359C125.489 53.171 125.22 52.5266 124.657 52.2924L123.37 51.7572C122.81 51.5241 122.167 51.7923 121.938 52.3546C121.875 52.5004 121.773 52.626 121.644 52.7176C121.514 52.8091 121.361 52.8629 121.203 52.8731L120.937 52.898L120.794 52.9028C120.726 52.9051 120.659 52.9146 120.592 52.9191C120.47 52.9273 120.348 52.9096 120.234 52.8666C120.087 52.8118 119.959 52.7179 119.862 52.5952ZM121.203 54.9347C121.781 54.8604 122.369 54.959 122.891 55.2178C123.413 55.4767 123.847 55.8844 124.138 56.3894C124.429 56.8944 124.563 57.4741 124.525 58.0554C124.486 58.6367 124.276 59.1935 123.921 59.6557C123.566 60.1179 123.082 60.4646 122.53 60.6522C121.978 60.8398 121.383 60.8599 120.819 60.7099C120.256 60.5599 119.75 60.2465 119.364 59.8093C118.979 59.3721 118.732 58.8306 118.654 58.2533C118.602 57.868 118.627 57.4762 118.727 57.1005C118.827 56.7249 119.001 56.3727 119.238 56.0643C119.475 55.7559 119.77 55.4973 120.108 55.3035C120.445 55.1096 120.817 54.9843 121.203 54.9347Z" fill="#403965"/>
        <path d="M92.608 85.6471C92.608 85.6471 88.0516 97.2082 89.0711 99.9148C90.0906 102.621 92.1954 103.201 92.1954 103.201C92.1954 103.201 89.4059 107.18 91.3552 110.911C93.3046 114.643 97.6337 114.466 97.9327 118.696C97.9237 118.717 98.1629 101.029 92.608 85.6471Z" stroke="#403965" stroke-width="0.666667" stroke-linecap="round" stroke-linejoin="round"/>
        <path d="M93.7658 95.9445C92.9407 95.4314 91.998 95.1373 91.0272 95.0901C91.0225 95.0901 91.0179 95.092 91.0145 95.0954C91.0112 95.0988 91.0093 95.1033 91.0093 95.1081C91.0093 95.1128 91.0112 95.1174 91.0145 95.1207C91.0179 95.1241 91.0225 95.126 91.0272 95.126C91.9658 95.3038 92.8766 95.6052 93.7359 96.0222C93.7718 96.0312 93.7987 95.9684 93.7658 95.9445Z" fill="white"/>
        <path d="M94.3182 108.184C93.684 107.82 92.9856 107.582 92.2613 107.482C92.2373 107.482 92.2344 107.515 92.2613 107.521C92.9686 107.662 93.6528 107.902 94.2943 108.232C94.3212 108.247 94.3451 108.199 94.3182 108.184Z" fill="white"/>
        <path d="M99.1914 122.544C100.289 120.771 101.578 119.124 103.036 117.633C105.317 115.354 107.237 113.734 107.536 112.229C107.835 110.723 105.252 109.612 105.252 109.612C105.252 109.612 108.406 110.179 109.27 108.856C110.134 107.533 110.549 99.867 110.549 99.867C110.549 99.867 104.809 103.963 102.133 109.704C99.4575 115.446 99.1914 122.544 99.1914 122.544Z" stroke="#403965" stroke-width="0.666667" stroke-linecap="round" stroke-linejoin="round"/>
        <path d="M108.49 107.058C108.112 107.001 107.728 106.988 107.347 107.019C107.303 107.019 107.306 107.096 107.347 107.099C107.724 107.099 108.104 107.081 108.481 107.099C108.485 107.098 108.489 107.096 108.492 107.093C108.495 107.09 108.497 107.086 108.498 107.081C108.499 107.077 108.499 107.072 108.497 107.068C108.496 107.064 108.493 107.06 108.49 107.058Z" fill="white"/>
        <path d="M104.367 114.493C103.761 114.505 103.162 114.625 102.597 114.846C102.597 114.846 102.597 114.875 102.597 114.873C103.195 114.732 103.772 114.675 104.364 114.574C104.372 114.57 104.378 114.565 104.383 114.558C104.388 114.551 104.391 114.543 104.391 114.534C104.391 114.526 104.389 114.518 104.385 114.51C104.381 114.503 104.375 114.497 104.367 114.493Z" fill="white"/>
        <path d="M103.129 111.924C102.878 111.922 102.626 111.944 102.379 111.99C102.374 111.991 102.37 111.995 102.368 111.999C102.365 112.003 102.363 112.007 102.363 112.012C102.363 112.017 102.365 112.022 102.368 112.026C102.37 112.03 102.374 112.033 102.379 112.035C102.629 112.049 102.881 112.038 103.129 112.002C103.14 112.002 103.149 111.998 103.157 111.99C103.164 111.983 103.168 111.973 103.168 111.963C103.168 111.953 103.164 111.943 103.157 111.935C103.149 111.928 103.14 111.924 103.129 111.924Z" fill="white"/>
        <path d="M96.5039 123.844C95.205 122.663 93.7804 121.628 92.2555 120.758C89.8816 119.44 87.9532 118.574 87.3643 117.424C86.7753 116.274 88.608 114.78 88.608 114.78C88.608 114.78 86.1863 115.975 85.1817 115.094C84.1772 114.212 82.0664 108.118 82.0664 108.118C82.0664 108.118 87.6602 110.105 91.1493 114.135C94.6383 118.165 96.5039 123.844 96.5039 123.844Z" stroke="#403965" stroke-width="0.666667" stroke-linecap="round" stroke-linejoin="round"/>
        <path d="M91.8608 118.233C91.3108 118.195 90.7586 118.263 90.2344 118.433C90.2344 118.433 90.2344 118.46 90.2344 118.457C90.7692 118.366 91.3096 118.31 91.8518 118.29C91.8907 118.29 91.8997 118.236 91.8608 118.233Z" fill="white"/>
        <path d="M86.9818 111.84C86.7309 111.82 86.4784 111.834 86.2313 111.882C86.2044 111.882 86.2134 111.93 86.2313 111.927C86.4795 111.9 86.7217 111.909 86.9668 111.903C86.9744 111.903 86.9819 111.901 86.988 111.896C86.9941 111.892 86.9984 111.885 87.0001 111.878C87.0019 111.87 87.001 111.863 86.9977 111.856C86.9943 111.849 86.9887 111.843 86.9818 111.84Z" fill="white"/>
        <path d="M93.2224 128.062L93.2224 128.062L93.6435 124.972H101.167L101.588 128.062L101.588 128.062L103.336 140.861H91.4742L93.2224 128.062Z" fill="#E6E5E9" stroke="#403965" stroke-width="0.666667"/>
        <path d="M101.756 126.887H93.0664L93.3341 124.753H101.507L101.756 126.887Z" fill="#403965"/>
        <path d="M92.5262 125.996V123.801H102.282V125.996H92.5262Z" fill="#E6E5E9" stroke="#403965" stroke-width="0.666667"/>
        <path d="M88.7144 141.183H262.12" stroke="#403965" stroke-width="0.666667" stroke-linecap="round" stroke-linejoin="round"/>
        <mask id="path-26-inside-1_406_6448" fill="white">
            <path fill-rule="evenodd" clip-rule="evenodd" d="M170.843 73.5403C172.573 73.5403 174.016 74.8638 174.164 76.5874L174.568 81.2716H229.446C231.726 81.2716 233.453 83.3302 233.057 85.5754L220.646 155.911H133.13C131.265 155.911 129.852 154.227 130.176 152.39L142.724 81.2716H142.838L143.637 76.3403C143.899 74.7263 145.292 73.5403 146.927 73.5403H170.843Z"/>
        </mask>
        <path fill-rule="evenodd" clip-rule="evenodd" d="M170.843 73.5403C172.573 73.5403 174.016 74.8638 174.164 76.5874L174.568 81.2716H229.446C231.726 81.2716 233.453 83.3302 233.057 85.5754L220.646 155.911H133.13C131.265 155.911 129.852 154.227 130.176 152.39L142.724 81.2716H142.838L143.637 76.3403C143.899 74.7263 145.292 73.5403 146.927 73.5403H170.843Z" fill="white"/>
        <path d="M174.164 76.5874L173.5 76.6447V76.6447L174.164 76.5874ZM174.568 81.2716L173.904 81.3289L173.956 81.9383H174.568V81.2716ZM233.057 85.5754L232.4 85.4596V85.4596L233.057 85.5754ZM220.646 155.911V156.578H221.206L221.303 156.027L220.646 155.911ZM130.176 152.39L129.519 152.274H129.519L130.176 152.39ZM142.724 81.2716V80.605H142.165L142.068 81.1558L142.724 81.2716ZM142.838 81.2716V81.9383H143.405L143.496 81.3783L142.838 81.2716ZM143.637 76.3403L142.979 76.2337V76.2337L143.637 76.3403ZM174.828 76.5302C174.65 74.4619 172.919 72.8737 170.843 72.8737V74.207C172.227 74.207 173.381 75.2658 173.5 76.6447L174.828 76.5302ZM175.232 81.2144L174.828 76.5302L173.5 76.6447L173.904 81.3289L175.232 81.2144ZM174.568 81.9383H229.446V80.605H174.568V81.9383ZM229.446 81.9383C231.311 81.9383 232.724 83.6226 232.4 85.4596L233.713 85.6913C234.182 83.0378 232.14 80.605 229.446 80.605V81.9383ZM232.4 85.4596L219.99 155.795L221.303 156.027L233.713 85.6913L232.4 85.4596ZM220.646 155.244H133.13V156.578H220.646V155.244ZM133.13 155.244C131.679 155.244 130.58 153.934 130.832 152.506L129.519 152.274C129.123 154.519 130.85 156.578 133.13 156.578V155.244ZM130.832 152.506L143.381 81.3875L142.068 81.1558L129.519 152.274L130.832 152.506ZM142.724 81.9383H142.838V80.605H142.724V81.9383ZM142.979 76.2337L142.18 81.165L143.496 81.3783L144.295 76.447L142.979 76.2337ZM146.927 72.8737C144.965 72.8737 143.293 74.2968 142.979 76.2337L144.295 76.447C144.504 75.1558 145.619 74.207 146.927 74.207V72.8737ZM170.843 72.8737H146.927V74.207H170.843V72.8737Z" fill="#403965" mask="url(#path-26-inside-1_406_6448)"/>
        <path d="M136.419 84.7698C136.102 85.0724 135.748 85.3344 135.366 85.5495C134.991 85.7729 134.59 85.9476 134.17 86.0693C134.486 85.7652 134.84 85.5031 135.223 85.2896C135.597 85.0652 135.999 84.8904 136.419 84.7698Z" fill="#403965"/>
        <path d="M138.404 86.6788C138.15 87.5195 137.705 88.2903 137.104 88.9313C137.225 88.512 137.401 88.1103 137.627 87.7364C137.84 87.3523 138.101 86.9969 138.404 86.6788Z" fill="#403965"/>
        <path d="M141.082 87.339C141.187 87.7642 141.237 88.2008 141.232 88.6385C141.238 89.0763 141.188 89.5131 141.082 89.938C140.975 89.5134 140.925 89.0764 140.933 88.6385C140.928 88.2008 140.978 87.7642 141.082 87.339Z" fill="#403965"/>
        <path d="M143.732 86.5891C144.036 86.9045 144.299 87.258 144.512 87.6407C144.737 88.0147 144.912 88.4164 145.032 88.8356C144.431 88.1946 143.986 87.4238 143.732 86.5831V86.5891Z" fill="#403965"/>
        <path d="M145.642 84.5877C146.062 84.7083 146.464 84.883 146.838 85.1075C147.221 85.321 147.575 85.583 147.89 85.8872C147.471 85.7666 147.069 85.5919 146.694 85.3674C146.311 85.154 145.958 84.8919 145.642 84.5877Z" fill="#403965"/>
        <path d="M207.569 85.9599L220.113 155.578H130.897C130.091 155.578 129.4 155.001 129.257 154.207L116.943 85.8844C116.796 85.0666 117.425 84.3146 118.256 84.3146H205.6C206.568 84.3146 207.397 85.0075 207.569 85.9599Z" fill="#E6E5E9" stroke="#504D64" stroke-width="0.666667"/>
        <path d="M140.562 127.952C142.657 127.952 144.356 126.255 144.356 124.161C144.356 122.068 142.657 120.37 140.562 120.37C138.467 120.37 136.768 122.068 136.768 124.161C136.768 126.255 138.467 127.952 140.562 127.952Z" fill="#403965"/>
        <path d="M170.557 127.952C172.653 127.952 174.351 126.255 174.351 124.161C174.351 122.068 172.653 120.37 170.557 120.37C168.462 120.37 166.763 122.068 166.763 124.161C166.763 126.255 168.462 127.952 170.557 127.952Z" fill="#403965"/>
        <path d="M158.902 132.434C158.902 130.077 157.085 128.167 154.844 128.167C152.603 128.167 150.787 130.077 150.787 132.434" stroke="#403965" stroke-width="0.666667" stroke-linecap="round"/>
        <path d="M208.795 92.7787L220.263 155.693" stroke="#403965" stroke-width="0.666667" stroke-linecap="round" stroke-linejoin="round"/>
        <path d="M102.053 128.923L93.0405 126.879L101.727 126.624L102.053 128.923Z" fill="#403965"/>
        <path d="M220.269 155.702L222.25 144.626C222.185 144.98 221.682 144.994 221.598 144.643L208.958 92.0006L220.269 155.702Z" fill="#504D64"/>
    </g>
    <defs>
        <clipPath id="clip0_406_6448">
            <rect width="180.667" height="112.667" fill="white" transform="translate(81.6665 43.6666)"/>
        </clipPath>
    </defs>
</svg>
