<svg width="42" height="42" viewBox="0 0 42 42" fill="none" xmlns="http://www.w3.org/2000/svg">
    <rect width="42" height="42" rx="12" fill="#61CA45"/>
    <path d="M21 31C26.4706 31 31 26.4706 31 21C31 15.5392 26.4608 11 20.9902 11C15.5294 11 11 15.5392 11 21C11 26.4706 15.5392 31 21 31ZM19.6569 26.0294C19.3235 26.0294 19.0588 25.8824 18.7843 25.549L15.951 22.0588C15.8039 21.8725 15.7157 21.6373 15.7157 21.4216C15.7157 20.9608 16.0784 20.6078 16.5196 20.6078C16.7941 20.6078 17.0392 20.7157 17.2647 21.0196L19.6078 24.049L24.1667 16.7451C24.3529 16.4412 24.6078 16.2941 24.8725 16.2941C25.3039 16.2941 25.7157 16.5784 25.7157 17.049C25.7157 17.2647 25.5882 17.5 25.4706 17.6961L20.4804 25.549C20.2647 25.8725 19.9902 26.0294 19.6569 26.0294Z" fill="white"/>
</svg>
