<svg width="40" height="40" viewBox="0 0 40 40" fill="none" xmlns="http://www.w3.org/2000/svg">
    <path d="M4.67266 32.85H35.3272C37.3615 30.413 38.8318 27.4925 39.5367 24.2901H0.463196C1.16813 27.5127 2.63842 30.4331 4.67266 32.85Z" fill="#FFD400"/>
    <path d="M35.3474 7.17023H4.65252C2.61828 9.60729 1.14799 12.5277 0.463196 15.7301H39.5569C38.8519 12.5277 37.3816 9.60729 35.3474 7.17023Z" fill="#FFD400"/>
    <path d="M35.3274 32.8701H4.67285C8.23781 37.0997 13.5147 39.8388 19.4362 40H20.5641C26.4855 39.8388 31.7625 37.0997 35.3274 32.8701Z" fill="black"/>
    <path d="M4.65265 7.17019H35.3475C31.7221 2.83988 26.3042 0.060423 20.2216 0H19.7785C13.7161 0.060423 8.27803 2.83988 4.65265 7.17019Z" fill="black"/>
    <path d="M40 20.1208V19.8993C40 18.4693 39.8389 17.0795 39.5368 15.7502H0.463243C0.161128 17.0795 0 18.4693 0 19.8993V20.1208C0 21.5508 0.161128 22.9607 0.463243 24.3102H39.5368C39.8389 22.9406 40 21.5508 40 20.1208Z" fill="black"/>
</svg>
